<?xml version="1.0" standalone="no"?>
<!DOCTYPE svg PUBLIC "-//W3C//DTD SVG 20010904//EN"
 "http://www.w3.org/TR/2001/REC-SVG-20010904/DTD/svg10.dtd">
<svg version="1.0" xmlns="http://www.w3.org/2000/svg"
 width="400.000000pt" height="400.000000pt" viewBox="0 0 400.000000 400.000000"
 preserveAspectRatio="xMidYMid meet">

<g transform="translate(0.000000,400.000000) scale(0.100000,-0.100000)"
fill="#000000" stroke="none">
<path d="M800 3395 c0 -13 28 -15 190 -15 l190 0 0 -1385 0 -1385 -185 0
c-158 0 -185 -2 -185 -15 0 -13 88 -15 733 -15 470 0 764 4 822 11 178 22 355
80 493 161 82 48 221 190 260 265 117 224 117 462 0 662 -48 82 -189 217 -286
275 -95 56 -237 113 -332 131 l-65 12 45 12 c262 70 462 247 509 451 16 67 13
227 -4 295 -78 306 -366 501 -804 545 -59 6 -374 10 -742 10 -561 0 -639 -2
-639 -15z m1322 -44 c161 -63 289 -220 344 -422 13 -47 18 -101 18 -199 -1
-348 -85 -522 -289 -595 -39 -14 -93 -19 -242 -22 l-193 -5 0 637 0 637 153
-4 c127 -4 161 -8 209 -27z m43 -1286 c211 -54 362 -215 426 -455 39 -147 36
-468 -7 -634 -34 -134 -109 -242 -209 -301 -88 -51 -176 -65 -407 -65 l-208 0
0 735 0 735 173 0 c122 0 190 -4 232 -15z"/>
</g>
</svg>
