<?xml version="1.0" standalone="no"?>
<!DOCTYPE svg PUBLIC "-//W3C//DTD SVG 20010904//EN"
 "http://www.w3.org/TR/2001/REC-SVG-20010904/DTD/svg10.dtd">
<svg version="1.0" xmlns="http://www.w3.org/2000/svg"
 width="225.000000pt" height="225.000000pt" viewBox="0 0 225.000000 225.000000"
 preserveAspectRatio="xMidYMid meet">

<g transform="translate(0.000000,225.000000) scale(0.100000,-0.100000)"
fill="#000000" stroke="none">
<path d="M453 1612 c-200 -228 -408 -475 -411 -485 -1 -7 106 -137 238 -290
l241 -277 607 0 607 1 147 172 c81 95 158 183 170 197 13 14 50 57 83 95 33
39 63 72 68 73 21 10 -10 53 -196 270 -111 130 -218 256 -237 279 l-35 43
-607 0 -606 0 -69 -78z m1283 -9 c16 -21 43 -53 60 -73 17 -19 44 -50 60 -69
16 -19 49 -58 74 -86 151 -174 210 -245 210 -255 0 -6 -62 -82 -137 -168 -76
-87 -174 -199 -217 -250 l-80 -92 -582 0 -582 0 -38 47 c-22 27 -119 139 -217
251 -97 112 -177 208 -177 213 0 8 289 349 411 487 l29 32 578 0 578 0 30 -37z"/>
<path d="M1358 1392 l-28 -3 0 -230 0 -229 30 0 30 0 0 128 c0 134 5 152 45
152 40 0 45 -18 45 -152 l0 -128 36 0 35 0 -3 146 -3 146 -29 25 c-26 22 -36
25 -77 20 l-48 -6 -3 67 c-3 67 -3 67 -30 64z"/>
<path d="M495 1160 l0 -230 33 0 32 0 0 103 c0 57 2 106 5 109 3 2 19 2 36 0
41 -6 59 -49 59 -142 l0 -70 36 0 36 0 -7 93 c-5 68 -12 99 -26 120 -20 27
-20 28 0 54 24 29 28 97 9 138 -18 40 -57 55 -140 55 l-73 0 0 -230z m129 170
c33 -12 45 -69 22 -105 -12 -19 -25 -25 -51 -25 l-35 0 0 70 c0 76 6 82 64 60z"/>
<path d="M820 1243 c-39 -35 -54 -117 -40 -208 10 -62 40 -104 78 -106 73 -5
115 16 131 63 16 44 14 172 -3 212 -29 70 -110 89 -166 39z m94 -38 c21 -21
30 -76 23 -142 -6 -60 -20 -83 -48 -83 -36 0 -51 43 -47 131 3 66 7 83 23 95
24 18 30 18 49 -1z"/>
<path d="M1113 1260 c-47 -19 -72 -134 -53 -242 14 -72 72 -106 148 -86 26 7
38 19 52 51 27 59 26 67 -15 67 -30 0 -35 -3 -35 -23 0 -45 -43 -62 -73 -29
-13 14 -17 39 -17 105 0 77 2 87 22 101 19 13 25 14 43 2 11 -7 21 -25 23 -40
3 -24 7 -26 38 -24 33 2 34 4 28 33 -16 79 -85 116 -161 85z"/>
<path d="M1663 1260 c-39 -16 -56 -65 -55 -166 0 -50 5 -101 11 -113 18 -32
55 -52 101 -53 49 0 81 25 97 77 11 35 11 35 -21 35 -26 0 -34 -5 -43 -30 -21
-56 -83 -29 -83 36 l0 34 80 0 80 0 0 31 c0 115 -78 185 -167 149z m95 -94 c3
-25 1 -26 -42 -26 -42 0 -46 2 -46 24 0 14 10 32 22 40 19 13 25 14 43 2 11
-7 21 -25 23 -40z"/>
</g>
</svg>
