<?xml version="1.0" standalone="no"?>
<!DOCTYPE svg PUBLIC "-//W3C//DTD SVG 20010904//EN"
 "http://www.w3.org/TR/2001/REC-SVG-20010904/DTD/svg10.dtd">
<svg version="1.0" xmlns="http://www.w3.org/2000/svg"
 width="253.000000pt" height="253.000000pt" viewBox="0 0 253.000000 253.000000"
 preserveAspectRatio="xMidYMid meet">

<g transform="translate(0.000000,253.000000) scale(0.100000,-0.100000)"
fill="#000000" stroke="none">
<path d="M1207 1780 c-78 -25 -137 -105 -137 -186 0 -207 273 -274 365 -90 36
72 30 142 -18 207 -40 56 -145 90 -210 69z m73 -30 c0 -5 -7 -10 -15 -10 -8 0
-15 5 -15 10 0 6 7 10 15 10 8 0 15 -4 15 -10z m-80 -20 c0 -5 -7 -10 -15 -10
-8 0 -15 5 -15 10 0 6 7 10 15 10 8 0 15 -4 15 -10z m150 0 c0 -5 -4 -10 -10
-10 -5 0 -10 5 -10 10 0 6 5 10 10 10 6 0 10 -4 10 -10z m-12 -54 c23 -23 9
-29 -25 -10 -35 20 -68 14 -103 -18 l-25 -23 73 -3 c95 -4 93 -22 -3 -22 -43
0 -75 -4 -75 -10 0 -6 28 -10 65 -10 37 0 65 -4 65 -10 0 -6 -27 -10 -61 -10
l-61 0 14 -22 c22 -33 69 -44 107 -25 24 12 31 12 31 3 0 -14 -41 -36 -66 -36
-30 0 -86 33 -97 57 -5 12 -16 23 -24 23 -16 0 -17 16 0 24 10 5 10 7 0 12
-18 8 -16 24 1 24 8 0 18 9 21 21 11 34 64 61 109 55 21 -2 46 -11 54 -20z
m-198 -6 c0 -5 -7 -10 -16 -10 -8 0 -12 5 -9 10 3 6 10 10 16 10 5 0 9 -4 9
-10z m270 0 c0 -5 -4 -10 -10 -10 -5 0 -10 5 -10 10 0 6 5 10 10 10 6 0 10 -4
10 -10z m-290 -80 c0 -5 -4 -10 -10 -10 -5 0 -10 5 -10 10 0 6 5 10 10 10 6 0
10 -4 10 -10z m310 0 c0 -5 -4 -10 -10 -10 -5 0 -10 5 -10 10 0 6 5 10 10 10
6 0 10 -4 10 -10z m-290 -80 c0 -5 -4 -10 -10 -10 -5 0 -10 5 -10 10 0 6 5 10
10 10 6 0 10 -4 10 -10z m270 0 c0 -5 -4 -10 -10 -10 -5 0 -10 5 -10 10 0 6 5
10 10 10 6 0 10 -4 10 -10z m-216 -61 c-3 -5 -10 -7 -15 -3 -5 3 -7 10 -3 15
3 5 10 7 15 3 5 -3 7 -10 3 -15z m160 0 c-3 -5 -10 -7 -15 -3 -5 3 -7 10 -3
15 3 5 10 7 15 3 5 -3 7 -10 3 -15z m-74 -20 c0 -5 -7 -9 -15 -9 -15 0 -20 12
-9 23 8 8 24 -1 24 -14z"/>
<path d="M970 1450 l0 -150 295 0 295 0 0 150 0 150 -39 0 c-38 0 -38 0 -43
-44 -7 -60 -58 -129 -117 -158 -131 -64 -293 18 -309 157 -5 45 -5 45 -43 45
l-39 0 0 -150z"/>
<path d="M78 1143 c-14 -3 -18 -15 -18 -49 0 -44 0 -44 35 -44 19 0 35 4 35 9
0 6 -9 8 -20 6 -13 -2 -20 2 -20 11 0 8 9 14 22 14 24 0 19 10 -6 14 -24 3
-21 20 6 26 21 5 21 7 5 13 -10 4 -19 6 -20 6 -1 -1 -10 -3 -19 -6z"/>
<path d="M698 1142 c-26 -3 -28 -7 -28 -48 l0 -44 38 1 c30 2 32 3 10 6 -32 5
-38 33 -7 33 12 0 17 4 14 11 -4 6 -13 8 -21 5 -8 -3 -14 1 -14 9 0 8 12 15
28 17 15 2 23 5 17 8 -5 3 -22 4 -37 2z"/>
<path d="M1467 1138 c-8 -5 -6 -8 6 -8 13 0 17 -9 17 -40 0 -29 4 -40 15 -40
11 0 15 11 15 40 0 31 4 40 17 40 9 0 13 3 10 7 -9 9 -66 10 -80 1z"/>
<path d="M2377 1144 c-11 -11 -9 -94 3 -94 6 0 10 10 10 23 l1 22 18 -22 c18
-22 41 -31 41 -16 0 3 -7 14 -16 24 -12 14 -13 22 -4 38 8 17 8 21 -4 21 -7 0
-17 -8 -21 -17 -7 -16 -9 -15 -14 5 -3 13 -9 20 -14 16z"/>
<path d="M170 1106 c0 -40 19 -59 57 -54 25 3 28 7 31 46 2 25 -1 42 -7 42 -6
0 -11 -16 -11 -36 0 -31 -3 -35 -22 -32 -18 2 -24 11 -26 36 -4 42 -22 41 -22
-2z"/>
<path d="M310 1095 c0 -26 5 -45 11 -45 6 0 9 7 6 15 -9 23 11 28 23 5 6 -11
14 -20 19 -20 7 0 7 14 2 83 -1 4 -14 7 -31 7 -29 0 -30 -2 -30 -45z m40 20
c0 -8 -4 -15 -10 -15 -5 0 -10 7 -10 15 0 8 5 15 10 15 6 0 10 -7 10 -15z"/>
<path d="M418 1115 c-22 -48 48 -88 86 -49 9 8 16 20 16 25 0 52 -81 70 -102
24z m70 -2 c13 -26 4 -43 -24 -43 -29 0 -41 24 -24 45 17 20 37 19 48 -2z"/>
<path d="M560 1096 c0 -25 5 -46 10 -46 6 0 10 9 10 19 0 13 8 21 23 23 14 2
22 10 22 23 0 15 -8 21 -32 23 -33 3 -33 3 -33 -42z m42 19 c0 -5 -5 -11 -11
-13 -6 -2 -11 4 -11 13 0 9 5 15 11 13 6 -2 11 -8 11 -13z"/>
<path d="M785 1104 c-8 -20 -15 -40 -15 -45 0 -12 17 -11 25 1 8 14 42 13 47
-1 2 -7 9 -10 16 -8 16 6 -23 89 -42 89 -9 0 -23 -16 -31 -36z m42 -21 c-11
-10 -26 8 -20 23 5 15 7 14 15 -1 6 -9 7 -19 5 -22z"/>
<path d="M900 1095 c0 -25 5 -45 10 -45 6 0 10 11 10 25 0 14 4 25 9 25 5 0
16 -11 25 -25 27 -41 46 -32 46 20 0 34 -4 45 -15 45 -11 0 -14 -7 -9 -25 3
-14 3 -25 -1 -25 -4 0 -16 11 -27 25 -31 39 -48 32 -48 -20z"/>
<path d="M1106 1124 c-32 -31 -6 -74 45 -74 16 0 29 5 29 10 0 6 -13 10 -29
10 -16 0 -31 6 -35 15 -7 20 22 47 45 40 11 -4 19 -2 19 4 0 17 -57 13 -74 -5z"/>
<path d="M1220 1095 l0 -45 38 1 c31 1 33 2 13 8 -34 9 -39 31 -7 31 14 0 26
5 26 11 0 5 -9 9 -20 7 -27 -4 -26 16 2 24 18 5 15 6 -14 7 l-38 1 0 -45z"/>
<path d="M1330 1095 c0 -25 5 -45 10 -45 6 0 10 12 10 27 l0 27 28 -27 c15
-15 31 -27 35 -27 4 0 7 20 7 45 0 25 -4 45 -10 45 -5 0 -10 -12 -10 -27 l-1
-28 -24 28 c-34 38 -45 34 -45 -18z"/>
<path d="M1580 1095 c0 -33 4 -45 15 -45 8 0 12 6 9 14 -9 23 14 28 26 6 23
-43 32 -16 21 63 -1 4 -17 7 -36 7 -35 0 -35 0 -35 -45z m52 20 c0 -5 -5 -11
-11 -13 -6 -2 -11 4 -11 13 0 9 5 15 11 13 6 -2 11 -8 11 -13z"/>
<path d="M1710 1103 c-8 -21 -16 -41 -18 -45 -2 -5 3 -8 12 -8 9 0 16 5 16 10
0 14 33 13 48 -2 20 -20 22 -3 5 40 -20 53 -44 55 -63 5z m40 -8 c0 -8 -4 -15
-10 -15 -5 0 -10 7 -10 15 0 8 5 15 10 15 6 0 10 -7 10 -15z"/>
<path d="M1830 1095 c0 -45 0 -45 36 -45 21 0 33 4 29 10 -3 6 -15 10 -26 10
-15 0 -19 7 -19 35 0 19 -4 35 -10 35 -5 0 -10 -20 -10 -45z"/>
<path d="M1990 1096 c0 -46 0 -46 34 -46 32 0 53 19 38 35 -4 4 -7 17 -7 28 0
17 -7 23 -32 25 -33 3 -33 3 -33 -42z m40 24 c0 -5 -4 -10 -10 -10 -5 0 -10 5
-10 10 0 6 5 10 10 10 6 0 10 -4 10 -10z m10 -40 c0 -5 -7 -10 -15 -10 -8 0
-15 5 -15 10 0 6 7 10 15 10 8 0 15 -4 15 -10z"/>
<path d="M2112 1098 c-12 -27 -15 -45 -8 -47 5 -2 12 1 14 8 5 14 52 15 52 1
0 -5 7 -10 15 -10 11 0 11 7 -5 43 -26 57 -44 58 -68 5z m48 -9 c0 -5 -4 -9
-10 -9 -5 0 -10 7 -10 16 0 8 5 12 10 9 6 -3 10 -10 10 -16z"/>
<path d="M2230 1095 c0 -25 5 -45 10 -45 6 0 10 11 10 25 0 14 4 25 9 25 5 0
16 -11 25 -25 27 -41 46 -32 46 20 0 35 -4 45 -16 45 -12 0 -15 -7 -12 -25 3
-14 2 -25 -2 -25 -4 0 -15 11 -24 25 -27 41 -46 32 -46 -20z"/>
<path d="M1087 953 c94 -2 252 -2 350 0 98 1 21 2 -172 2 -192 1 -273 -1 -178
-2z"/>
<path d="M760 800 c0 -47 2 -50 25 -50 14 0 25 5 25 10 0 6 -9 10 -20 10 -11
0 -20 5 -20 10 0 6 9 10 20 10 11 0 20 5 20 10 0 6 -9 10 -20 10 -27 0 -25 18
3 30 21 8 21 9 -5 9 -27 1 -28 -1 -28 -49z"/>
<path d="M854 811 c2 -84 70 -84 72 0 1 39 1 40 -3 7 -3 -23 -11 -42 -23 -48
-23 -12 -37 3 -43 50 -4 28 -4 27 -3 -9z"/>
<path d="M971 798 c1 -29 4 -43 6 -30 5 27 19 28 35 2 7 -11 17 -20 22 -20 4
0 1 10 -7 23 -9 15 -12 29 -7 37 11 18 -6 40 -31 40 -16 0 -19 -7 -18 -52z
m37 24 c2 -7 -3 -12 -12 -12 -9 0 -16 7 -16 16 0 17 22 14 28 -4z"/>
<path d="M1076 831 c-35 -38 12 -94 59 -73 49 23 34 92 -20 92 -12 0 -30 -9
-39 -19z m62 -3 c30 -30 -4 -77 -41 -57 -29 17 -15 69 18 69 6 0 16 -5 23 -12z"/>
<path d="M1203 833 c-4 -10 2 -23 16 -34 25 -20 20 -42 -6 -32 -11 4 -14 3 -9
-5 10 -17 36 -15 43 4 3 8 -4 25 -16 38 -22 23 -19 39 5 29 8 -3 14 0 14 6 0
17 -40 13 -47 -6z"/>
<path d="M1280 843 c0 -6 7 -16 15 -23 8 -7 15 -27 16 -44 l1 -31 8 33 c4 19
13 39 19 45 6 6 11 16 11 21 0 6 -7 2 -15 -8 -14 -19 -15 -19 -35 -1 -11 10
-20 13 -20 8z"/>
<path d="M1383 834 c-4 -11 2 -23 17 -34 25 -19 20 -43 -7 -33 -11 4 -14 3 -9
-5 10 -16 31 -15 46 2 9 12 7 18 -9 33 -24 20 -28 48 -6 39 8 -3 15 -1 15 4 0
17 -40 11 -47 -6z"/>
<path d="M1473 843 c12 -3 17 -15 17 -44 0 -21 5 -39 10 -39 6 0 10 18 10 39
0 29 5 41 18 44 9 3 -3 5 -28 5 -25 0 -37 -2 -27 -5z"/>
<path d="M1570 800 c0 -47 2 -50 25 -50 14 0 25 5 25 10 0 6 -9 10 -20 10 -11
0 -20 5 -20 10 0 6 9 10 20 10 11 0 20 5 20 10 0 6 -9 10 -20 10 -27 0 -25 18
3 30 21 8 21 9 -5 9 -27 1 -28 -1 -28 -49z"/>
<path d="M1661 799 c2 -51 2 -52 8 -15 5 35 8 37 20 23 14 -17 31 -14 31 5 0
6 -3 8 -7 5 -3 -4 -17 3 -30 15 l-23 21 1 -54z"/>
<path d="M1725 840 c-3 -5 -3 -16 2 -22 4 -7 6 -23 5 -35 -2 -11 2 -24 7 -28
7 -4 11 11 11 44 0 47 -10 65 -25 41z"/>
</g>
</svg>
